<svg xmlns="http://www.w3.org/2000/svg" viewBox="0 0 200 200" width="200" height="200">
  <defs>
    <!-- Gradient for depth -->
    <radialGradient id="greenGradient" cx="50%" cy="30%" r="70%">
      <stop offset="0%" style="stop-color:#00ff88;stop-opacity:1" />
      <stop offset="100%" style="stop-color:#00cc6a;stop-opacity:1" />
    </radialGradient>
    
    <!-- Shadow filter -->
    <filter id="shadow" x="-20%" y="-20%" width="140%" height="140%">
      <feDropShadow dx="0" dy="4" stdDeviation="8" flood-color="#000000" flood-opacity="0.3"/>
    </filter>
    
    <!-- Glow effect -->
    <filter id="glow" x="-50%" y="-50%" width="200%" height="200%">
      <feGaussianBlur stdDeviation="4" result="coloredBlur"/>
      <feMerge> 
        <feMergeNode in="coloredBlur"/>
        <feMergeNode in="SourceGraphic"/>
      </feMerge>
    </filter>
  </defs>
  
  <!-- Outer circle with gradient -->
  <circle cx="100" cy="100" r="85" fill="url(#greenGradient)" stroke="#00ff88" stroke-width="3" filter="url(#shadow)"/>
  
  <!-- Inner circle for contrast -->
  <circle cx="100" cy="100" r="75" fill="none" stroke="rgba(255,255,255,0.2)" stroke-width="1"/>
  
  <!-- Bitcoin B symbol -->
  <g transform="translate(100,100)" fill="white" filter="url(#glow)">
    <!-- Vertical line -->
    <rect x="-25" y="-45" width="6" height="90" rx="3"/>
    
    <!-- Top extension -->
    <rect x="-15" y="-55" width="4" height="15" rx="2"/>
    <rect x="-5" y="-55" width="4" height="15" rx="2"/>
    
    <!-- Bottom extension -->
    <rect x="-15" y="40" width="4" height="15" rx="2"/>
    <rect x="-5" y="40" width="4" height="15" rx="2"/>
    
    <!-- Top B curve -->
    <path d="M -19 -35 Q 15 -35 15 -15 Q 15 5 -19 0 Z" stroke="white" stroke-width="2" stroke-linejoin="round"/>
    
    <!-- Bottom B curve -->  
    <path d="M -19 0 Q 20 0 20 20 Q 20 35 -19 35 Z" stroke="white" stroke-width="2" stroke-linejoin="round"/>
    
    <!-- Middle divider -->
    <rect x="-19" y="-2" width="35" height="4" rx="2"/>
  </g>
  
  <!-- Highlight for premium look -->
  <ellipse cx="75" cy="65" rx="15" ry="8" fill="rgba(255,255,255,0.3)" opacity="0.6"/>
</svg>